<?xml version="1.0" encoding="UTF-8" standalone="no"?>
<!-- Created with Inkscape (http://www.inkscape.org/) -->

<svg
   width="1080"
   height="1080"
   viewBox="0 0 1080 1080"
   version="1.1"
   id="svg1"
   inkscape:version="1.4.3 (0d15f75042, 2025-12-25)"
   sodipodi:docname="Final wall-i logo .svg"
   xmlns:inkscape="http://www.inkscape.org/namespaces/inkscape"
   xmlns:sodipodi="http://sodipodi.sourceforge.net/DTD/sodipodi-0.dtd"
   xmlns:xlink="http://www.w3.org/1999/xlink"
   xmlns="http://www.w3.org/2000/svg"
   xmlns:svg="http://www.w3.org/2000/svg">
  <sodipodi:namedview
     id="namedview1"
     pagecolor="#ffffff"
     bordercolor="#000000"
     borderopacity="0.25"
     inkscape:showpageshadow="2"
     inkscape:pageopacity="0.0"
     inkscape:pagecheckerboard="0"
     inkscape:deskcolor="#d1d1d1"
     inkscape:document-units="px"
     inkscape:zoom="0.48425926"
     inkscape:cx="616.40535"
     inkscape:cy="447.07457"
     inkscape:window-width="1366"
     inkscape:window-height="731"
     inkscape:window-x="0"
     inkscape:window-y="0"
     inkscape:window-maximized="1"
     inkscape:current-layer="a1" />
  <defs
     id="defs1">
    <inkscape:path-effect
       effect="bspline"
       id="path-effect1"
       is_visible="true"
       lpeversion="1.3"
       weight="33.333333"
       steps="2"
       helper_size="0"
       apply_no_weight="true"
       apply_with_weight="true"
       only_selected="false"
       uniform="false" />
  </defs>
  <g
     inkscape:label="Layer 1"
     inkscape:groupmode="layer"
     id="layer1">
    <a
       id="a1"
       transform="matrix(4.0240402,0,0,4.0240402,-1438.6611,-1284.4649)"
       style="display:inline;opacity:1;fill:none;stroke:#000000;stroke-opacity:1">
      <g
         id="g1"
         transform="translate(377.36057,326.19014)"
         style="display:inline;fill:none;stroke:#1a1a1a;stroke-opacity:1">
        <path
           style="display:inline;fill:#1a1a1a;stroke:#1a1a1a;stroke-opacity:1"
           d="M 58.52415,34.236223 C 42.01746,36.606294 28.956495,47.49904 24.68001,63.807985 21.738056,75.027513 23.524145,88.270524 23.524145,99.807983 v 67.999997 c 0,16.54831 -3.023769,35.68564 7.043982,50 7.156923,10.17575 18.627303,16.0464 30.956023,16.91049 22.767335,1.59572 46.17259,0.0895 68.99999,0.0895 15.55296,0 32.63193,1.98001 48,-0.43904 16.60386,-2.61357 29.56973,-14.04953 33.49692,-30.56096 2.82817,-11.89076 1.50308,-24.86334 1.50308,-37 v -65 c 0,-15.985286 2.9301,-36.099162 -6.80014,-49.999995 -6.95767,-9.93988 -17.23303,-16.151703 -29.19986,-17.710648 -19.70184,-2.566604 -41.12636,-0.289352 -61,-0.289352 -18.857346,0 -39.33495,-2.25174 -57.99999,0.428238 m 64.00462,47.331011 c 8.12364,-0.883318 25.90902,7.16392 29.71682,14.244609 5.75145,10.694927 -0.4965,25.087907 -12.72145,26.516967 -14.41801,1.68542 -23.99483,-9.11774 -24,-22.520827 -0.002,-5.845269 -1.34658,-17.332689 7.00463,-18.240749 m -17.00927,0.79477 c 8.07523,0.12805 7.03025,11.97586 7.00387,17.445979 -0.0619,12.837127 -8.46122,22.823777 -21.999225,22.819437 C 77.23056,122.62341 70.82207,106.6516 76.94158,95.826503 80.739095,89.108874 97.846444,82.240314 105.5195,82.361994 m -11.994575,7.01852 C 79.05682,92.809824 82.108575,117.2265 97.524154,114.23467 112.8672,111.25691 108.94925,85.724574 93.524925,89.380514 m 34.003085,0.16974 c -14.72438,5.6983 -5.88855,28.695446 8.98148,23.554786 14.97401,-5.1766 5.94949,-29.333026 -8.98148,-23.554786 m 8.00693,7.462969 c 2.61451,0 2.78839,4.158927 0.0695,4.158927 -2.63345,0 -2.69259,-4.158927 -0.0695,-4.158927 m -37.592576,0.54167 c 2.358296,-0.81253 3.841176,2.665707 1.35725,3.506157 -2.33897,0.79141 -3.74605,-2.683117 -1.35725,-3.506157 m 74.581776,87.253077 c -0.0188,6.55643 -1.09889,12.17792 -8.00076,14.73611 -6.9336,2.56995 -15.72914,1.26389 -22.99924,1.26389 H 96.524144 c -8.509179,0 -21.252894,2.02519 -26.855714,-6.10495 -6.80742,-9.87811 -4.76477,-36.41356 -2.67978,-47.89505 0.88311,-4.86304 2.79062,-9.73634 7.57562,-11.91049 5.125085,-2.32868 12.455435,-1.08951 17.959875,-1.08951 h 36.999995 c 10.23099,0 31.83984,-4.0766 39.77161,3.39429 3.09221,2.91253 5.13916,11.29211 2.2006,15.00232 -3.34265,4.22046 -12.26206,0.15884 -16.75847,4.03703 -6.95268,5.99672 -5.90004,21.82608 1.82947,26.70833 4.49669,2.84027 10.8826,1.85803 15.9568,1.85803 m -57,-12 c 2.49602,4.38596 4.37836,14.24733 9.22453,16.39661 14.68105,6.51104 17.08824,-16.33493 20.10879,-25.39661 1.10759,-3.32275 4.32089,-9.16646 2.96991,-12.6821 -1.33788,-3.4815 -8.38267,-2.81543 -10.60108,-0.71451 -4.51764,4.27842 -6.32475,16.44277 -7.70215,22.39661 h -1 c -1.53147,-6.46252 -6.35293,-25.57806 -16.60648,-18.97223 -4.60882,2.96924 -6.71258,13.00342 -8.39352,17.97223 -2.18341,-4.14362 -3.51939,-8.56357 -4.999996,-13 -0.96498,-2.89139 -1.6961,-7.16339 -4.418989,-8.97223 -2.55761,-1.69902 -9.53415,-1.93252 -9.9375,2.12038 -0.75194,7.55568 6.78519,29.5256 11.442129,35.53395 2.48262,3.20305 9.502526,3.21376 12.496136,0.71451 3.87547,-3.23549 5.63617,-10.80335 7.41821,-15.39661 m 61.8912,-17.56636 c 6.20003,0.26213 5.46303,19.39519 3.08101,23.41821 -2.87066,4.84831 -13.16507,3.50875 -17.97221,3.08951 -9.26357,-0.80786 -12.51224,-15.91957 -7.25772,-22.66281 3.78879,-4.86223 16.50877,-4.08336 22.14892,-3.84491 m -15.66281,9.61342 c -6.15478,3.45483 -0.25134,12.59686 5.45371,8.92053 5.06064,-3.26105 -0.10738,-11.92155 -5.45371,-8.92053 z"
           id="path2" />
      </g>
    </a>
    <path
       style="display:none;mix-blend-mode:darken;fill:#ff0000"
       d="m 316.2276,144.58859 c 99.6378,-4.93732 267.70202,-4.67421 367.33905,-0.19993 99.63702,4.47427 130.84495,13.15918 152.30083,36.43153 21.45589,23.27235 33.15737,61.13009 39.00824,166.79149 5.85086,105.66139 5.85086,279.11872 0.68823,384.77876 -5.16263,105.66003 -15.48726,143.51703 -37.51447,168.12555 -22.02721,24.60852 -55.75503,35.96585 -155.90966,40.6121 -100.15462,4.64625 -266.72873,2.58128 -365.84951,-3.09759 -99.12077,-5.67887 -130.78298,-14.97103 -152.63811,-38.89121 -21.85512,-23.92017 -33.90077,-62.46624 -39.57954,-164.3417 -5.67877,-101.87546 -4.99045,-267.07292 1.0866,-371.79416 6.07704,-104.72124 17.5421,-148.96028 38.88096,-176.15011 21.33886,-27.18984 52.54958,-37.3274 152.18738,-42.26473 z"
       id="path1"
       sodipodi:nodetypes="ccccccccccccc"
       inkscape:original-d="m 247.80115,139.38815 c 168.06425,0.26312 336.12847,0.52623 504.19272,0.78935 31.2098,8.68543 62.41773,17.37034 93.62754,26.05577 11.70196,37.85927 23.40345,75.71701 35.10517,113.57553 0,173.46427 0,346.9216 0,520.38241 -10.32526,37.85926 -20.64989,75.71626 -30.97515,113.57552 -33.72916,11.35778 -67.45698,22.71511 -101.18546,34.07266 -166.58077,-2.06505 -333.15488,-4.13002 -499.73232,-6.19503 -31.66411,-9.29273 -63.32632,-18.5849 -94.99044,-27.87762 -12.04613,-38.54762 -24.09178,-77.09369 -36.13767,-115.64054 0.68836,-165.20407 1.37668,-330.40153 2.06501,-495.6023 11.46575,-44.24171 22.93081,-88.48075 34.39656,-132.72245 31.21197,-10.13797 62.42269,-20.27553 93.63404,-30.4133 z"
       inkscape:path-effect="#path-effect1" />
    <use
       x="0"
       y="0"
       xlink:href="#path1"
       id="use5860"
       style="display:inline" />
  </g>
</svg>
